<?xml version="1.0" standalone="no"?>
<!DOCTYPE svg PUBLIC "-//W3C//DTD SVG 20010904//EN"
 "http://www.w3.org/TR/2001/REC-SVG-20010904/DTD/svg10.dtd">
<svg version="1.0" xmlns="http://www.w3.org/2000/svg"
 width="700.000000pt" height="700.000000pt" viewBox="0 0 700.000000 700.000000"
 preserveAspectRatio="xMidYMid meet">
<metadata>
Created by potrace 1.14, written by Peter Selinger 2001-2017
</metadata>
<g transform="translate(0.000000,700.000000) scale(0.100000,-0.100000)"
fill="#000000" stroke="none">
<path d="M2857 5614 c-1 -1 -47 -4 -102 -7 -116 -7 -223 -19 -279 -32 -12 -3
-32 -7 -46 -9 -104 -17 -280 -77 -408 -137 -268 -128 -440 -355 -507 -669 -9
-41 -18 -82 -20 -90 -1 -8 -6 -44 -10 -80 -4 -36 -9 -78 -11 -95 -5 -46 -4
-334 1 -385 17 -154 68 -364 96 -394 5 -6 9 -15 9 -22 0 -27 85 -157 146 -223
128 -138 335 -248 576 -306 116 -27 150 -33 293 -51 22 -3 274 -7 560 -9 592
-5 914 -12 965 -20 93 -16 210 -48 257 -71 125 -60 196 -241 186 -470 -6 -119
-48 -218 -117 -276 -61 -51 -207 -100 -376 -125 -14 -2 -564 -5 -1222 -6 -658
-2 -1200 -6 -1204 -10 -5 -5 -9 -669 -5 -742 2 -18 2668 -9 2700 9 3 2 35 7
71 10 159 17 370 77 526 152 218 103 339 222 430 421 57 124 65 150 93 288 27
136 36 242 34 425 -2 376 -96 658 -280 845 -102 103 -212 175 -332 216 -64 23
-198 55 -261 63 -25 3 -54 8 -65 10 -78 15 -315 20 -970 21 -743 1 -751 1
-828 23 -198 56 -297 143 -344 302 -3 8 -6 65 -8 125 -6 218 53 358 190 444
55 35 182 86 235 95 19 3 67 11 105 18 51 8 380 12 1212 12 l1143 1 1 45 c0
61 0 559 0 643 l-1 68 -1216 -3 c-669 -2 -1216 -4 -1217 -4z"/>
</g>
</svg>
