<?xml version="1.0" encoding="UTF-8"?>
<svg id="Layer_3" data-name="Layer 3" xmlns="http://www.w3.org/2000/svg" viewBox="0 0 1024 190.2">
  <defs>
    <style>
      .cls-1 {
        fill: #db242b;
      }
    </style>
  </defs>
  <path class="cls-1" d="M1024,191.01H0V0H1024V191.01ZM175.12,68.57v-14.93l-46.06,.12c-8.94,0-16.03,1.77-21.28,5.31-5.25,3.54-7.95,10.16-8.1,19.88-.08,9.25,2.39,15.65,7.4,19.18,5.01,3.54,11.84,5.27,20.46,5.19l20.76,.12c3.19,.08,5.95,.54,8.28,1.4,2.33,.86,3.69,3.11,4.08,6.76,.54,4.66-.6,7.66-3.44,8.98-2.84,1.32-6.2,1.94-10.09,1.87h-44.08v14.93h46.88c8.94,0,16.01-1.73,21.22-5.19,5.21-3.46,7.89-10.05,8.05-19.77,0-.78-.02-1.53-.06-2.27-.04-.74-.1-1.5-.18-2.27-.23-2.57-.82-5.05-1.75-7.46-.93-2.41-2.33-4.47-4.2-6.18-2.02-1.94-4.35-3.28-7-4.02-2.64-.74-5.33-1.18-8.05-1.34-.93-.08-1.87-.12-2.8-.12s-1.83-.04-2.68-.12l-23.32,.12c-2.96,0-5.54-.7-7.75-2.1-2.22-1.4-3.32-3.73-3.32-7,0-4.27,1.3-7.17,3.91-8.69,2.6-1.52,5.81-2.31,9.62-2.39h43.49Zm3.96-14.93l31.83,46.76v36.97h17.61v-36.97l32.3-46.76h-20.41l-20.99,31.95-20.64-31.95h-19.71Zm85.59,0v83.72h18.07l-.82-63.32,36.03,63.32h20.41V53.64h-17.96l.82,60.17-34.28-60.17h-22.27Zm125.24,14.58h28.92v-14.58l-29.27,.12c-12.67,0-22.18,3.11-28.51,9.33-6.34,6.22-9.93,15.94-10.79,29.15-.08,1.17-.14,2.33-.18,3.5-.04,1.17-.02,2.37,.06,3.61,.15,5.75,1.17,11.37,3.03,16.85,1.87,5.48,5.13,10.13,9.8,13.93,3.89,3.11,8.03,5.09,12.42,5.95,4.39,.86,8.96,1.28,13.7,1.28h29.74v-14.58l-28.92,.12h-1.05c-2.57,0-5.07-.25-7.52-.76-2.45-.51-4.57-1.81-6.35-3.91-2.02-2.25-3.36-4.74-4.02-7.46-.66-2.72-.99-5.56-.99-8.51h48.86v-14.58l-48.74,.12c.39-6.22,2.18-11.02,5.36-14.4,3.19-3.38,8.01-5.11,14.46-5.19Zm44.31-14.58v83.72h17.61v-32.88h20.76l18.42,32.88h19.82l-20.87-34.87c5.83-1.4,10.12-4.22,12.88-8.45,2.76-4.24,4.1-9.27,4.02-15.1,0-.54-.02-1.09-.06-1.63-.04-.54-.06-1.09-.06-1.63-.23-2.88-.87-5.67-1.92-8.4-1.05-2.72-2.62-5.09-4.72-7.11-2.33-2.33-5.03-3.92-8.1-4.78-3.07-.85-6.2-1.36-9.39-1.52-.86-.08-1.69-.12-2.51-.12s-1.65-.04-2.51-.12h-43.38Zm39.18,15.04c3.97,0,7.56,.51,10.79,1.52,3.22,1.01,4.84,4,4.84,8.98,.08,4.82-1.42,7.79-4.49,8.92-3.07,1.13-6.47,1.69-10.2,1.69h-.47c-.16,0-.31-.04-.47-.12h-21.57v-21.11h21.57v.12Zm78.71,33.82h23.56v19.71l-19.82,.12c-8.32,0-13.7-2.57-16.15-7.7-2.45-5.13-3.67-11.23-3.67-18.31v-.35c0-6.92,1.22-13.27,3.67-19.07,2.45-5.79,7.83-8.73,16.15-8.8h37.9v-14.46l-37.9,.12c-12.67,0-22.18,3.11-28.51,9.33-6.34,6.22-9.93,15.94-10.79,29.15-.08,1.17-.14,2.33-.18,3.5-.04,1.17-.02,2.37,.06,3.61,.15,5.75,1.17,11.37,3.03,16.85,1.87,5.48,5.13,10.13,9.79,13.93,3.89,3.19,8.08,5.19,12.59,6.01,4.51,.82,9.17,1.22,13.99,1.22h37.9v-49.67h-41.63v14.81Zm90.6-34.28h28.92v-14.58l-29.27,.12c-12.67,0-22.18,3.11-28.51,9.33-6.34,6.22-9.93,15.94-10.79,29.15-.08,1.17-.14,2.33-.18,3.5-.04,1.17-.02,2.37,.06,3.61,.15,5.75,1.17,11.37,3.03,16.85,1.87,5.48,5.13,10.13,9.79,13.93,3.89,3.11,8.03,5.09,12.42,5.95,4.39,.86,8.96,1.28,13.7,1.28h29.74v-14.58l-28.92,.12h-1.05c-2.57,0-5.07-.25-7.52-.76-2.45-.51-4.57-1.81-6.36-3.91-2.02-2.25-3.36-4.74-4.02-7.46-.66-2.72-.99-5.56-.99-8.51h48.86v-14.58l-48.74,.12c.39-6.22,2.18-11.02,5.36-14.4,3.19-3.38,8.01-5.11,14.46-5.19Zm44.31-14.58v83.72h18.07l-.82-63.32,36.03,63.32h20.41V53.64h-17.96l.82,60.17-34.28-60.17h-22.27Zm125.24,14.58h28.92v-14.58l-29.27,.12c-12.67,0-22.18,3.11-28.51,9.33-6.34,6.22-9.93,15.94-10.79,29.15-.08,1.17-.14,2.33-.18,3.5-.04,1.17-.02,2.37,.06,3.61,.15,5.75,1.17,11.37,3.03,16.85,1.87,5.48,5.13,10.13,9.79,13.93,3.89,3.11,8.03,5.09,12.42,5.95,4.39,.86,8.96,1.28,13.7,1.28h29.74v-14.58l-28.92,.12h-1.05c-2.57,0-5.07-.25-7.52-.76-2.45-.51-4.57-1.81-6.36-3.91-2.02-2.25-3.36-4.74-4.02-7.46-.66-2.72-.99-5.56-.99-8.51h48.86v-14.58l-48.74,.12c.39-6.22,2.18-11.02,5.36-14.4,3.19-3.38,8.01-5.11,14.46-5.19Zm63.2,27.29l-29.15,41.86h20.76l18.66-29.15,17.61,29.15h21.11l-28.92-43.03,26.94-40.7h-20.29l-17.14,26.47-17.26-26.47h-20.52l28.22,41.86Z"/>
</svg>