<?xml version="1.0" encoding="UTF-8"?>
<svg id="Layer_5" data-name="Layer 5" xmlns="http://www.w3.org/2000/svg" viewBox="0 0 512 512">
  <defs>
    <style>
      .cls-1 {
        fill: #db242b;
      }
    </style>
  </defs>
  <path class="cls-1" d="M256,0C114.62,0,0,114.62,0,256S114.62,512,256,512s256-114.62,256-256S397.38,0,256,0Zm116.25,391.97c-19.32,12.83-45.55,19.24-78.69,19.24H119.75v-55.34h163.43c14.41,.29,26.87-2.01,37.4-6.92,10.52-4.9,14.77-16,12.76-33.29-1.45-13.55-6.49-21.9-15.13-25.08-8.65-3.17-18.88-4.9-30.7-5.19l-76.96-.43c-31.99,.29-57.29-6.12-75.88-19.24-18.59-13.11-27.75-36.82-27.45-71.12,.57-36.03,10.59-60.6,30.05-73.72,19.46-13.11,45.76-19.67,78.91-19.67l170.78-.43v55.34H225.68c-14.13,.29-26.02,3.24-35.67,8.86-9.66,5.62-14.48,16.36-14.48,32.21,0,12.11,4.11,20.75,12.32,25.94,8.21,5.19,17.79,7.78,28.75,7.78l86.47-.43c3.17,.29,6.49,.43,9.95,.43s6.92,.15,10.38,.43c10.09,.58,20.03,2.24,29.83,4.97,9.8,2.74,18.44,7.72,25.94,14.92,6.92,6.34,12.11,13.98,15.56,22.92,3.46,8.94,5.62,18.16,6.49,27.67,.28,2.88,.5,5.69,.65,8.43,.14,2.74,.22,5.55,.22,8.43-.58,36.03-10.53,60.46-29.83,73.28Z"/>
</svg>